<svg width="290" height="111" viewBox="0 0 290 111" fill="none" xmlns="http://www.w3.org/2000/svg">
<g filter="url(#filter0_d_1_176)">
<path fill-rule="evenodd" clip-rule="evenodd" d="M72.683 8.53528C74.1286 8.00357 75.5766 7.90572 76.8871 8.07727C76.9135 8.08012 76.9407 8.08171 76.9672 8.08508C76.956 8.08367 76.9454 8.08219 76.9369 8.08118C76.9401 8.08154 76.9441 8.08177 76.9476 8.08216C76.9551 8.08305 76.9646 8.08488 76.974 8.08606C76.9884 8.08794 77.0035 8.08988 77.0179 8.09192C77.042 8.09516 77.0702 8.09806 77.1 8.10266C77.1377 8.10852 77.1758 8.11723 77.2132 8.12415C79.8704 8.56683 81.7619 10.0628 82.9183 11.6173L83.1429 11.9337L83.1439 11.9347C83.5932 12.5972 83.9005 13.2471 84.0951 13.712C84.2719 14.1346 84.3955 14.5086 84.4144 14.5675C84.4277 14.6048 84.4394 14.6431 84.4515 14.6808C85.5679 15.1901 86.7133 15.8453 87.8002 16.6993C89.0385 16.4056 90.3068 16.2545 91.5941 16.2394C91.7157 16.1175 91.8704 15.9676 92.0541 15.8048C92.2412 15.6063 92.7231 15.1106 93.3422 14.6417C94.1628 14.0204 95.5683 13.1686 97.5101 12.9005L97.8382 12.8615C99.4653 12.6987 100.935 13.0101 102.135 13.506C102.174 13.5219 102.212 13.5387 102.25 13.5558L102.556 13.6935C102.605 13.7155 102.655 13.7388 102.703 13.7628L102.724 13.7736L103.171 14.0109C105.361 15.2458 106.806 17.1787 107.496 19.2755C108.117 21.1607 108.016 22.8384 107.952 23.5851C107.951 23.5892 107.951 23.5937 107.951 23.5978C107.851 24.7221 107.687 25.8596 107.451 26.9952H176.998C183.626 26.9954 188.998 32.368 188.998 38.9952V42.9962C188.998 49.6235 194.371 54.996 200.998 54.9962H267.219C272.62 54.9963 276.998 59.3747 276.998 64.7755C277.012 64.9531 277.021 65.1326 277.021 65.3136V67.6329C277.021 67.8083 277.011 67.9829 276.998 68.1564V80.9962C276.998 87.6236 271.626 92.9961 264.998 92.9962H88.1742C86.7536 94.2453 84.8921 95.004 82.8549 95.005H82.8529C78.4013 95.0048 74.785 91.3977 74.7816 86.9406V77.8722C73.6351 77.7698 72.4897 77.6381 71.349 77.4269C64.5922 81.8567 58.3958 82.5183 53.6224 82.7921C53.6057 82.793 53.5883 82.7924 53.5717 82.7931C43.6558 83.3628 34.8319 80.3517 27.3363 74.4259L26.6136 73.8419C19.2901 67.798 14.3253 59.8465 12.6263 50.2208C12.6241 50.2081 12.6216 50.1944 12.6195 50.1818L12.4935 49.4249C12.4915 49.4128 12.4896 49.4 12.4877 49.3878C11.1284 40.7171 12.4762 31.7985 18.2367 23.881C23.221 17.0331 30.241 12.8555 38.7884 11.8976C42.0848 11.5165 45.4132 11.55 48.6967 11.9904C51.7699 10.8185 55.5143 9.46802 59.7748 9.44837C61.7714 9.43925 64.9455 9.72364 67.5238 11.7784L67.7718 11.9855C67.8824 12.0814 67.9994 12.1896 68.1215 12.3077C68.3586 11.9285 68.7819 11.3031 69.4144 10.6574C70.1281 9.929 71.1997 9.081 72.683 8.53528ZM77.0355 8.09485C77.0379 8.0952 77.0409 8.09549 77.0433 8.09583C77.0392 8.09522 77.0346 8.09445 77.0306 8.09387L77.0355 8.09485Z" fill="white" style="fill:white;fill-opacity:1;"/>
<path d="M76.9369 8.08118C76.9294 8.08034 76.9221 8.07985 76.9164 8.07923C76.9188 8.07946 76.9224 8.079 76.9252 8.07923C76.9286 8.07964 76.9328 8.08067 76.9369 8.08118Z" fill="white" style="fill:white;fill-opacity:1;"/>
<path d="M76.9076 8.07727C76.91 8.07758 76.9133 8.07881 76.9164 8.07923C76.9076 8.07822 76.9001 8.07677 76.8959 8.0763L76.89 8.07532C76.89 8.07532 76.8997 8.07642 76.9076 8.07727Z" fill="white" style="fill:white;fill-opacity:1;"/>
<path d="M62.9742 44.5187L62.9644 44.5275M62.9742 44.5187H62.9644M62.9742 44.5187L62.9644 44.5275M62.9742 44.5187H62.9644M62.9644 44.5275V44.5187M62.9644 44.5275V44.5187M62.9644 44.5187H62.9586M62.9644 44.5187L62.9654 44.5031M62.9644 44.5187H62.9586M62.9644 44.5187L62.9654 44.5031M62.9586 44.5187L62.9654 44.5031M62.9586 44.5187L62.9654 44.5031M73.7007 14.8557C74.262 14.2827 75.1114 13.8733 76.1656 14.0314L76.1666 14.0305L76.1685 14.0314C76.1727 14.0321 76.177 14.0318 76.1812 14.0324L76.1802 14.0334C77.1323 14.178 77.7824 14.7195 78.1783 15.3029C78.4213 15.6611 78.579 16.0577 78.6714 16.3176L78.7427 16.5256L78.7486 16.5402L78.7535 16.5558C79.1476 17.7656 79.1607 18.1187 79.4908 18.5851C79.8912 19.1306 80.4501 19.4527 81.4185 19.8947L81.8619 20.0939L81.8668 20.0959C83.1881 20.6858 84.3908 21.4868 85.3365 22.6144C85.6433 22.9804 85.9145 23.3712 86.1509 23.7863C88.0698 22.6196 90.1963 22.1291 92.5269 22.258C93.6262 22.3181 94.5388 21.8649 95.5357 20.801C95.5822 20.7505 95.868 20.4233 96.1871 20.1682L96.1861 20.1672C96.1877 20.1657 96.2099 20.1445 96.3511 19.9943C96.4572 19.8816 96.6832 19.6387 96.9654 19.425C97.2682 19.1957 97.7246 18.9285 98.3306 18.8449C98.9536 18.759 99.535 18.8935 100.036 19.1379L100.043 19.1418L100.05 19.1447C100.963 19.5995 101.529 20.3346 101.798 21.1516C102.039 21.8811 102.015 22.5931 101.974 23.0656V23.0685C101.492 28.5125 99.3802 33.4102 93.9644 36.3703L93.9517 36.3771C92.4463 37.1862 90.8223 37.7446 89.1431 38.0363C89.1723 38.6262 89.1834 39.3528 89.0679 40.1545L89.067 40.1623C87.9565 47.6584 85.9641 52.6722 83.7095 56.4055C82.1878 58.9253 80.5259 60.8666 79.0884 62.4836C80.0395 62.8534 81.4571 63.4548 83.6695 64.4855L83.6724 64.4875C84.5027 64.876 84.9757 65.5932 85.2027 66.215C85.4387 66.8618 85.4872 67.5908 85.3287 68.298C84.9832 69.8395 83.7343 71.0568 81.8433 71.4582L81.8375 71.4601C80.1891 71.8046 77.945 72.1436 75.5582 71.9201V71.9191C73.3637 71.7308 71.6874 71.4821 70.1363 70.9162C63.8381 75.8572 58.1572 76.5212 53.2818 76.801L53.2828 76.8019C44.8855 77.2973 37.4709 74.793 31.0504 69.7141L30.4322 69.215C24.1236 64.0089 19.9679 57.2932 18.5357 49.1769C17.1836 41.5301 18.2754 34.0264 23.0875 27.4123H23.0884C27.1013 21.8987 32.6168 18.6238 39.4644 17.8586C42.7238 17.4804 46.0201 17.5774 49.2505 18.1437C49.5517 18.0662 49.8486 17.9728 50.1392 17.8615L50.1402 17.8605C53.4797 16.5832 56.4741 15.4638 59.8023 15.4484C61.3912 15.4411 62.8402 15.7189 63.7838 16.4709C64.2565 16.8477 64.9649 17.6735 64.7623 18.8517C64.5627 20.0111 63.6426 20.5547 63.0904 20.7551L63.0865 20.757C63.1539 20.7327 62.9561 20.8121 62.6412 21.0676C62.353 21.3014 62.0991 21.5774 61.9429 21.8498C61.7963 22.1056 61.7678 22.2949 61.7906 22.4543C61.8116 22.6017 61.9092 22.935 62.3882 23.4357C62.9367 23.7865 63.4768 24.1503 64.0074 24.5275L64.6002 24.9572L64.6031 24.9592C67.5385 27.135 70.0799 29.9369 72.4517 32.3254L73.4586 33.3205L73.4869 33.3488C74.6602 34.5284 76.0049 35.5197 77.4722 36.2932C77.4814 36.2653 77.4914 36.2378 77.5005 36.2101C77.568 36.0053 77.632 35.8057 77.6949 35.6096C73.5209 32.5522 71.3793 28.2847 71.2818 23.0998C71.2366 20.6958 71.6926 18.2378 72.9341 15.9689L72.938 15.9621L72.941 15.9553C72.9983 15.8524 73.2822 15.2829 73.7007 14.8557ZM31.6978 39.1691C30.2335 38.9662 28.7461 39.0026 27.2935 39.2766C27.5205 43.9237 28.7671 48.3046 30.9214 52.4338L31.3668 53.2609L31.3687 53.2639H31.3677C33.822 57.6975 37.3137 60.9684 41.563 63.4865C41.6524 63.5275 41.8377 63.6117 42.0923 63.7101C42.4589 63.8519 42.9441 64.0167 43.4703 64.1408C44.2179 64.3171 44.8249 64.3566 45.272 64.301C44.849 63.6087 44.4739 62.8879 44.1763 61.9357L44.1714 61.9201L44.1666 61.9035C44.0109 61.375 43.7684 60.4123 43.897 59.4631C43.9658 58.956 44.1628 58.2852 44.7007 57.716C45.2713 57.1125 46.0161 56.8437 46.7466 56.799L46.7584 56.798C47.5285 56.7557 48.3163 56.9728 49.0406 57.257C49.7997 57.5549 50.6733 58.0017 51.6705 58.5959C53.6663 59.7851 56.3281 61.6646 59.8375 64.423L59.8433 64.4279C60.7127 65.1166 61.7655 65.5572 62.8795 65.8264C60.1545 63.1993 57.9252 60.2089 55.8873 57.1916V57.1906C53.5839 53.7746 51.517 50.5512 48.7974 47.8566V47.8557C44.0099 43.109 38.3507 40.1446 31.6978 39.1691ZM67.9449 43.881C68.0013 44.415 67.9535 44.9402 67.8482 45.4416L67.8492 45.4426C67.7689 45.843 67.7557 46.2535 67.8072 46.6584C67.879 46.9792 67.9648 47.1013 68.0435 47.1945C68.1061 47.2686 68.1969 47.3595 68.3531 47.4953C68.5208 47.6412 68.6602 47.753 68.9 47.9533C69.2893 48.2456 69.7658 48.3961 70.2525 48.382C70.4177 48.3726 70.6282 48.3246 70.9224 48.2267C70.67 47.701 70.3565 47.1803 69.9859 46.6223L69.982 46.6164C69.2717 45.5397 69.0826 45.1993 67.9449 43.881ZM63.8101 44.1613C63.7213 44.0873 63.4975 43.9621 62.7984 43.9621H62.7408L62.6822 43.9592C62.5255 43.9501 62.3699 43.9314 62.2164 43.9035C62.171 43.9572 62.131 44.0152 62.0982 44.0773L62.0601 44.1594C62.0127 44.2736 61.9869 44.3962 61.9849 44.5197C61.9849 44.7221 62.0471 44.9197 62.1627 45.0861C62.2775 45.2515 62.4403 45.3765 62.6285 45.4474C62.7333 45.4846 62.8429 45.5049 62.9537 45.5051L63.0728 45.4982C63.2307 45.4791 63.3814 45.4217 63.5123 45.3312C63.6431 45.2408 63.7502 45.1197 63.8238 44.9787C63.8958 44.8408 63.933 44.6879 63.9341 44.5324C63.9329 44.4093 63.9109 44.3067 63.8843 44.2267C63.8662 44.2102 63.8457 44.1905 63.8209 44.1701L63.8101 44.1613Z" fill="#4D6BFE" stroke="white" style="fill:#4D6BFE;fill:color(display-p3 0.3020 0.4196 0.9961);fill-opacity:1;stroke:white;stroke-opacity:1;" stroke-width="4"/>
<path d="M93.2817 75.1007C93.7343 75.0474 95.059 74.7878 97.2558 74.3218C99.4659 73.8558 101.077 73.5097 102.089 73.2833L102.228 74.6813L102.368 75.9993C102.182 76.0393 101.949 76.0859 101.669 76.1391C101.39 76.1924 101.07 76.2589 100.711 76.3388C96.6234 77.2175 94.2802 77.7368 93.6811 77.8965L93.2817 75.1007ZM93.3615 69.6287H111.135V72.1849H93.3615V69.6287ZM93.8009 65.9142C96.3704 65.7012 98.8934 65.3084 101.37 64.7359L101.789 67.1524C100.711 67.4053 99.4858 67.6383 98.1145 67.8513C96.7565 68.051 95.3786 68.2041 93.9806 68.3107L93.8009 65.9142ZM99.3727 79.2146C101.516 78.2294 103.3 77.1576 104.725 75.9993C106.163 74.841 107.374 73.483 108.359 71.9253L110.616 73.3432C109.391 75.1406 107.98 76.7316 106.382 78.1162C104.785 79.4875 102.927 80.7057 100.811 81.7708L99.3727 79.2146ZM107.021 64.676C108.22 65.7411 109.311 66.7796 110.297 67.7914L108.439 69.6687C107.907 69.0695 107.061 68.1842 105.903 67.0126L105.304 66.4134L107.021 64.676ZM95.5783 79.8936C95.8712 79.8936 96.0775 79.8736 96.1974 79.8337C96.3305 79.7804 96.417 79.7005 96.457 79.594C96.4969 79.4875 96.5169 79.3211 96.5169 79.0948V66.7929H99.3128V79.9934C99.3128 80.9387 99.0931 81.5978 98.6537 81.9705C98.2277 82.3433 97.4888 82.5297 96.437 82.5297H94.3601L93.8408 79.8936H95.5783ZM104.964 64.5162C104.964 65.0088 104.991 65.7478 105.044 66.733C105.058 66.9992 105.071 67.2788 105.084 67.5717C105.098 67.8513 105.111 68.1376 105.124 68.4305C105.244 70.534 105.377 72.2515 105.524 73.5829C105.683 74.9009 105.896 76.026 106.163 76.9579C106.429 77.8899 106.795 78.702 107.261 79.3943C107.421 79.634 107.574 79.8071 107.72 79.9136C107.867 80.0201 108 80.0733 108.12 80.0733C108.226 80.0733 108.313 80.0001 108.379 79.8537C108.459 79.6939 108.566 79.3544 108.699 78.8352C108.779 78.5023 108.859 78.1362 108.939 77.7368C109.018 77.3374 109.092 76.9712 109.158 76.6384L111.395 77.7368C111.288 78.2161 111.162 78.722 111.016 79.2545C110.882 79.7738 110.769 80.1865 110.676 80.4927C110.41 81.3581 110.064 81.9772 109.638 82.35C109.225 82.7228 108.719 82.9092 108.12 82.9092C107.427 82.9092 106.815 82.7294 106.283 82.3699C105.763 82.0105 105.271 81.438 104.805 80.6525C104.206 79.6406 103.686 78.1428 103.247 76.1591C102.821 74.1754 102.521 71.6258 102.348 68.5104C102.255 66.1805 102.195 64.8491 102.169 64.5162H104.964Z" fill="#1A1A1A" style="fill:#1A1A1A;fill:color(display-p3 0.1000 0.1000 0.1000);fill-opacity:1;"/>
<path d="M113.532 67.5118H118.624V70.128H113.532V67.5118ZM123.537 75.3004H126.033V82.7494H123.537V75.3004ZM118.485 75.9794H131.026V78.1761H118.485V75.9794ZM114.271 80.0733C114.537 80.0733 114.717 80.0267 114.81 79.9335C114.903 79.8403 114.95 79.6473 114.95 79.3544V64.6161H117.366V80.2331C117.366 80.8455 117.293 81.3182 117.147 81.651C117.013 81.9838 116.78 82.2168 116.448 82.35C116.115 82.4831 115.649 82.5497 115.05 82.5497H113.692L113.172 80.0733H114.271ZM113.013 73.9024C113.638 73.6628 114.477 73.3166 115.529 72.8639C116.581 72.4113 117.493 72.0052 118.265 71.6457L118.425 73.0836L118.604 74.4416C117.273 75.0274 115.582 75.7663 113.532 76.6584L113.013 73.9024ZM117.766 80.293C119.203 79.8004 120.415 79.2346 121.4 78.5955C122.399 77.9431 123.297 77.1776 124.096 76.2989L125.275 78.0363C124.409 78.9816 123.471 79.8204 122.459 80.5526C121.46 81.2716 120.262 81.9506 118.864 82.5896L117.766 80.293ZM125.354 76.4387C126.127 77.2508 126.999 77.9564 127.971 78.5556C128.942 79.1414 130.074 79.634 131.366 80.0334L130.387 82.35C129.069 81.7908 127.911 81.1784 126.912 80.5127C125.914 79.8337 125.015 79.0615 124.216 78.1961L125.354 76.4387ZM119.882 64.676H129.608V69.5089H119.882V64.676ZM122.499 66.733V67.6916H126.992V66.733H122.499ZM125.115 70.1679H130.627V75.0008H125.115V70.1679ZM127.092 72.0452V73.1835H128.59V72.0452H127.092ZM118.824 70.1679H124.336V75.0008H118.824V70.1679ZM120.901 72.0452V73.1835H122.339V72.0452H120.901Z" fill="#1A1A1A" style="fill:#1A1A1A;fill:color(display-p3 0.1000 0.1000 0.1000);fill-opacity:1;"/>
<path d="M135 84.8463C135.599 84.5667 136.065 84.2871 136.398 84.0075C136.731 83.728 136.971 83.3951 137.117 83.009C137.277 82.6229 137.357 82.137 137.357 81.5512H135.34V77.9165H138.974V81.5512C138.974 82.6163 138.735 83.5349 138.255 84.3071C137.789 85.0793 136.984 85.7317 135.839 86.2642L135 84.8463Z" fill="#1A1A1A" style="fill:#1A1A1A;fill:color(display-p3 0.1000 0.1000 0.1000);fill-opacity:1;"/>
<path d="M160.942 66.2337H163.738V82.0904H160.942V66.2337ZM153.074 81.4713C153.593 80.526 153.959 79.7538 154.172 79.1547C154.385 78.5556 154.525 77.8699 154.591 77.0977C154.658 76.3122 154.691 75.0873 154.691 73.4231V65.0355H170.168V79.9535C170.168 80.6325 170.082 81.1584 169.909 81.5312C169.736 81.9173 169.449 82.1902 169.05 82.35C168.651 82.5097 168.098 82.5896 167.393 82.5896H165.076L164.597 79.9735H166.414C166.747 79.9735 166.98 79.9535 167.113 79.9136C167.246 79.8736 167.333 79.8004 167.373 79.6939C167.412 79.5741 167.432 79.3744 167.432 79.0948V67.7315H157.467V74.3817C157.467 75.6998 157.421 76.8181 157.327 77.7368C157.234 78.6554 157.048 79.5208 156.768 80.3329C156.489 81.1451 156.089 81.9905 155.57 82.8692L153.074 81.4713ZM155.989 74.861H168.531V77.4771H155.989V74.861ZM155.989 69.9882H168.491V72.6043H155.989V69.9882Z" fill="#1A1A1A" style="fill:#1A1A1A;fill:color(display-p3 0.1000 0.1000 0.1000);fill-opacity:1;"/>
<path d="M183.349 64.017L184.507 67.4319L181.532 67.5917L180.313 64.4563L183.349 64.017ZM172.924 80.8522C173.457 80.0534 173.85 79.3211 174.103 78.6554C174.356 77.9764 174.529 77.1709 174.622 76.239C174.728 75.2937 174.782 74.0156 174.782 72.4046V66.6331H190.219V75.5999H176.279V72.804H187.323V69.3691H177.657V71.8454C177.657 73.8425 177.591 75.4335 177.458 76.6184C177.338 77.8033 177.105 78.8618 176.759 79.7937C176.413 80.7124 175.887 81.6976 175.181 82.7494L172.924 80.8522Z" fill="#1A1A1A" style="fill:#1A1A1A;fill:color(display-p3 0.1000 0.1000 0.1000);fill-opacity:1;"/>
<path d="M195.032 73.1435L197.488 71.9852V82.6895H195.032V73.1435ZM197.948 69.2093L203.34 68.5703L203.459 71.1065L198.027 71.7456L197.948 69.2093ZM192.895 74.9609C193.547 74.2819 194.2 73.483 194.852 72.5644C195.518 71.6457 196.097 70.7271 196.59 69.8084L198.527 71.1864C197.981 72.3447 197.288 73.4697 196.45 74.5614C195.624 75.6532 194.679 76.6983 193.614 77.6968L192.895 74.9609ZM192.955 68.8499C193.647 68.2641 194.346 67.5385 195.052 66.6731C195.757 65.8077 196.303 65.0421 196.689 64.3764L198.826 65.5547C198.32 66.4734 197.635 67.4453 196.769 68.4704C195.904 69.4956 195.038 70.3809 194.173 71.1265L192.955 68.8499ZM198.607 77.7567C198.846 77.5837 198.993 77.4039 199.046 77.2175C199.099 77.0178 199.126 76.7582 199.126 76.4387V64.5961H201.602V75.6598L203.06 74.6214L203.759 77.2375L200.044 79.9136L198.607 77.7567ZM200.464 81.1917C201.529 80.0068 202.308 78.9616 202.8 78.0563C203.293 77.151 203.632 76.0792 203.819 74.841C204.019 73.6029 204.152 71.8122 204.218 69.4689C204.232 68.8831 204.238 68.071 204.238 67.0325H206.655C206.655 67.179 206.655 67.3454 206.655 67.5318C206.655 67.7182 206.648 67.9112 206.635 68.1109C206.635 68.8565 206.615 69.8417 206.575 71.0666C206.495 73.0637 206.328 74.6946 206.076 75.9594C205.836 77.2109 205.45 78.3559 204.917 79.3943C204.385 80.4195 203.599 81.5778 202.561 82.8692L200.464 81.1917ZM210.649 65.3151C210.649 65.8077 210.596 68.0843 210.489 72.145C210.383 76.472 210.323 78.8152 210.309 79.1747C210.296 80.04 210.176 80.7057 209.95 81.1717C209.723 81.6244 209.377 81.9373 208.911 82.1103C208.445 82.2967 207.793 82.3899 206.954 82.3899H205.596L205.077 79.7338H206.475C206.861 79.7338 207.141 79.7005 207.314 79.634C207.487 79.5541 207.593 79.4343 207.633 79.2745C207.687 79.1147 207.726 78.8618 207.753 78.5156C207.753 78.4624 207.753 78.4091 207.753 78.3559C207.766 78.3026 207.773 78.2493 207.773 78.1961C207.826 77.2375 207.873 76.1125 207.913 74.8211C207.953 73.5163 207.986 72.165 208.013 70.767C208.039 69.3691 208.046 68.4039 208.033 67.8713H203.06V65.3151H210.649Z" fill="#1A1A1A" style="fill:#1A1A1A;fill:color(display-p3 0.1000 0.1000 0.1000);fill-opacity:1;"/>
<path d="M224.129 64.017C224.182 64.1901 224.249 64.3764 224.329 64.5762C224.409 64.7759 224.495 64.9822 224.588 65.1952C224.801 65.7544 224.954 66.1538 225.048 66.3935L221.792 66.6531C221.659 66.1738 221.44 65.5614 221.133 64.8158L221.014 64.5162L224.129 64.017ZM213.005 81.0519C213.418 80.2797 213.724 79.5142 213.924 78.7553C214.137 77.9964 214.27 77.1643 214.323 76.2589C214.39 75.3403 214.423 74.1287 214.423 72.6243V65.6546H230.979V68.091H216.999V72.3447C216.999 74.1287 216.953 75.5999 216.86 76.7582C216.78 77.9032 216.613 78.955 216.36 79.9136C216.121 80.8722 215.755 81.8374 215.262 82.8093L213.005 81.0519ZM217.738 80.4528C217.885 80.3329 217.998 80.1865 218.078 80.0134C218.171 79.8403 218.218 79.6406 218.218 79.4143V69.5289C220.175 69.4756 222.145 69.3691 224.129 69.2093C226.126 69.0496 228.017 68.8499 229.801 68.6102L230.42 70.9468C228.862 71.1997 227.251 71.3994 225.587 71.5459C223.936 71.6923 222.332 71.8122 220.774 71.9054V79.1747L222.032 78.4557L222.312 80.8921L218.877 82.6495L217.738 80.4528ZM219.476 73.6228H230.919V75.9993H219.476V73.6228ZM226.226 70.2877C226.266 71.8188 226.339 73.1302 226.446 74.2219C226.565 75.3004 226.732 76.2257 226.945 76.9979C227.171 77.7701 227.464 78.4424 227.824 79.0149C227.983 79.2945 228.123 79.4942 228.243 79.614C228.376 79.7338 228.496 79.7937 228.602 79.7937C228.696 79.7937 228.769 79.7471 228.822 79.6539C228.889 79.5474 228.949 79.381 229.002 79.1547C229.055 78.8884 229.115 78.5888 229.182 78.256C229.261 77.9098 229.321 77.6036 229.361 77.3374L231.318 78.1961C231.278 78.4757 231.185 78.9217 231.039 79.5341C230.892 80.1466 230.766 80.5793 230.659 80.8322C230.473 81.418 230.193 81.864 229.821 82.1702C229.448 82.4898 229.015 82.6495 228.522 82.6495C228.003 82.6495 227.537 82.5097 227.125 82.2302C226.712 81.9639 226.292 81.4912 225.866 80.8122C225.44 80.1599 225.088 79.4276 224.808 78.6155C224.528 77.79 224.295 76.7183 224.109 75.4002C223.936 74.0688 223.816 72.378 223.75 70.3277L226.226 70.2877ZM224.169 78.4957C224.409 78.935 224.741 79.6673 225.167 80.6924C225.274 80.9454 225.374 81.185 225.467 81.4114C225.573 81.6377 225.673 81.8507 225.767 82.0504L223.73 82.8093C223.477 82.2235 223.164 81.3847 222.791 80.293C222.605 79.7738 222.451 79.3877 222.332 79.1347L224.169 78.4957Z" fill="#1A1A1A" style="fill:#1A1A1A;fill:color(display-p3 0.1000 0.1000 0.1000);fill-opacity:1;"/>
<path d="M237.29 75.56H239.926V79.0748C239.926 79.4875 239.979 79.7605 240.085 79.8936C240.192 80.0267 240.425 80.0933 240.784 80.0933H243.66C243.94 80.0933 244.139 80.0733 244.259 80.0334C244.392 79.9801 244.479 79.9002 244.519 79.7937C244.572 79.6739 244.599 79.4809 244.599 79.2146L244.639 78.6754C244.652 78.4757 244.665 78.2826 244.679 78.0962C244.692 77.8965 244.699 77.7101 244.699 77.5371L247.135 78.256C247.135 78.2693 247.082 78.9483 246.975 80.293C246.922 80.9054 246.796 81.3648 246.596 81.671C246.41 81.9905 246.117 82.2102 245.717 82.33C245.331 82.4498 244.765 82.5097 244.02 82.5097H239.846C238.914 82.5097 238.255 82.3167 237.869 81.9306C237.483 81.5578 237.29 80.9321 237.29 80.0534V75.56ZM244.159 66.5932C244.665 67.9512 245.225 69.0429 245.837 69.8684C246.463 70.6938 247.188 71.3528 248.014 71.8454C248.853 72.3381 249.911 72.7841 251.189 73.1835L250.211 75.7197C248.733 75.1473 247.515 74.5415 246.556 73.9024C245.597 73.2634 244.759 72.4512 244.04 71.466C243.334 70.4675 242.702 69.176 242.142 67.5917L244.159 66.5932ZM242.142 65.2352H250.29V67.5917C249.824 68.7766 249.325 69.7752 248.793 70.5873C248.26 71.3994 247.548 72.165 246.656 72.8839C245.777 73.6029 244.619 74.3218 243.181 75.0407L241.903 72.7641C243.061 72.2715 244.013 71.7656 244.759 71.2463C245.504 70.7271 246.103 70.1812 246.556 69.6087C247.022 69.0229 247.415 68.3506 247.734 67.5917H242.142V65.2352ZM232.876 80.4727C233.289 79.7139 233.655 78.9683 233.974 78.236C234.294 77.4905 234.574 76.7116 234.813 75.8995L237.17 76.6783C236.89 77.5837 236.584 78.4357 236.251 79.2346C235.918 80.0334 235.565 80.7923 235.193 81.5112L232.876 80.4727ZM248.253 75.54C248.56 75.966 248.873 76.4187 249.192 76.898C249.512 77.364 249.831 77.8433 250.151 78.3359C250.337 78.6022 250.51 78.8684 250.67 79.1347C250.843 79.3877 251.009 79.634 251.169 79.8736L249.012 81.2316C248.626 80.5393 248.187 79.8071 247.694 79.0349C247.202 78.2627 246.716 77.5238 246.236 76.8181L248.253 75.54ZM242.482 74.5415C242.735 74.861 243.061 75.3004 243.46 75.8595C243.86 76.4187 244.219 76.9246 244.539 77.3773L242.622 78.7353C242.515 78.6022 242.409 78.4557 242.302 78.2959C242.196 78.1229 242.089 77.9431 241.983 77.7567C241.517 77.0112 241.091 76.3788 240.705 75.8595L242.482 74.5415ZM232.856 73.523C234.307 73.0171 235.432 72.5178 236.231 72.0252C237.043 71.5193 237.636 71 238.009 70.4675C238.381 69.9216 238.701 69.2559 238.967 68.4704H233.236V66.034H241.503V68.5303C241.051 69.915 240.578 71 240.085 71.7855C239.606 72.5577 238.901 73.2634 237.969 73.9024C237.05 74.5415 235.719 75.2072 233.974 75.8995L232.856 73.523ZM233.675 70.8869C234.114 69.9682 234.54 68.8499 234.953 67.5318C235.379 66.2004 235.719 64.9955 235.972 63.9171L238.468 64.1967C238.295 65.0355 238.028 66.0007 237.669 67.0924C237.323 68.1842 237.003 69.0762 236.71 69.7685C238.534 70.7005 240.265 71.6524 241.903 72.6243L240.545 75.1406C239.573 74.435 238.475 73.7027 237.25 72.9438C236.025 72.1849 234.833 71.4993 233.675 70.8869Z" fill="#1A1A1A" style="fill:#1A1A1A;fill:color(display-p3 0.1000 0.1000 0.1000);fill-opacity:1;"/>
<path d="M253.845 65.0954H270.241V67.8513L263.651 72.5244V79.7538C263.651 80.4861 263.544 81.0519 263.331 81.4513C263.132 81.8507 262.792 82.1303 262.313 82.2901C261.847 82.4631 261.201 82.5497 260.376 82.5497H257.08L256.561 79.5142H259.497C259.883 79.5142 260.156 79.4942 260.316 79.4542C260.475 79.4143 260.582 79.3278 260.635 79.1946C260.688 79.0482 260.715 78.8019 260.715 78.4557V71.1065L265.668 67.8513H253.845V65.0954Z" fill="#1A1A1A" style="fill:#1A1A1A;fill:color(display-p3 0.1000 0.1000 0.1000);fill-opacity:1;"/>
<path d="M95.975 38.6145V40.5916H84.0126V38.6145H95.975ZM97.2531 34.8201V44.406H82.7345V34.8201H97.2531ZM85.0111 42.369H94.9764V36.8571H85.0111V42.369ZM91.1022 35.8985V43.5672H88.8854V35.8985H91.1022ZM87.7271 48.8394C87.7271 49.1989 87.807 49.4652 87.9668 49.6383C88.1265 49.798 88.3995 49.8779 88.7856 49.8779H91.5814C91.8877 49.8779 92.1207 49.8446 92.2804 49.7781C92.4535 49.6982 92.5733 49.5917 92.6399 49.4585C92.7198 49.3121 92.773 49.119 92.7997 48.8794C92.8263 48.6264 92.8396 48.3269 92.8396 47.9807C92.8529 47.6346 92.8596 47.335 92.8596 47.082L95.0164 47.5014C95.0031 47.9408 94.9631 48.4467 94.8966 49.0192L94.8367 49.9578C94.7834 50.5037 94.6569 50.923 94.4572 51.2159C94.2708 51.5222 93.9779 51.7352 93.5785 51.855C93.1791 51.9748 92.6399 52.0347 91.9609 52.0347H88.0067C87.1413 52.0347 86.5089 51.8484 86.1095 51.4756C85.7101 51.1161 85.5104 50.5436 85.5104 49.7581V45.3047H87.7271V48.8394ZM81.0569 50.497C81.4031 49.7514 81.7293 48.9526 82.0355 48.1005C82.3417 47.2351 82.5947 46.3897 82.7944 45.5643L84.8514 46.0635C84.6117 46.9289 84.3321 47.8276 84.0126 48.7596C83.7064 49.6915 83.3935 50.517 83.074 51.2359L81.0569 50.497ZM96.3744 45.2847C96.9203 46.1634 97.5327 47.2019 98.2117 48.4001C98.2916 48.5199 98.5778 49.0392 99.0704 49.9578L97.1333 51.0162C97.0933 50.923 96.8337 50.4238 96.3544 49.5184C95.7553 48.4001 95.1429 47.3283 94.5171 46.3032L96.3744 45.2847ZM90.3033 44.2063L91.2819 45.5643C91.5348 45.8971 91.7678 46.2233 91.9809 46.5428C92.2072 46.8624 92.4069 47.1486 92.58 47.4016L90.8026 48.6597C90.776 48.6065 90.4232 48.0539 89.7442 47.0022C89.5311 46.6826 89.3248 46.3831 89.1251 46.1035C88.9387 45.8239 88.7723 45.5776 88.6258 45.3646L90.3033 44.2063Z" fill="#666666" style="fill:#666666;fill:color(display-p3 0.4000 0.4000 0.4000);fill-opacity:1;"/>
<path d="M107.198 34.2609H109.495V40.6914H107.198V34.2609ZM102.705 35.8186H113.589V37.7358H102.705V35.8186ZM101.127 39.5132H118.741V41.4503H101.127V39.5132ZM100.828 45.4844C104.21 44.2063 107.099 42.6552 109.495 40.8312C111.905 38.9939 113.889 36.9104 115.446 34.5804L117.264 35.7987C115.639 38.1951 113.562 40.3653 111.033 42.3091C108.503 44.2529 105.368 46.0436 101.627 47.6812L100.828 45.4844ZM106.799 42.7884H117.683V44.6456H106.799V42.7884ZM105.122 47.801L105.84 43.7469L108.237 43.8468L107.818 45.9237H116.245C115.966 47.9607 115.779 49.2588 115.686 49.818C115.593 50.4304 115.426 50.9164 115.187 51.2759C114.947 51.6353 114.608 51.8949 114.168 52.0547C113.729 52.2278 113.156 52.3143 112.451 52.3143H107.897L107.458 50.3173H111.592C112.031 50.3173 112.358 50.2973 112.571 50.2574C112.784 50.2041 112.95 50.1109 113.07 49.9778C113.203 49.8446 113.309 49.6316 113.389 49.3387C113.403 49.2855 113.443 49.0791 113.509 48.7196C113.616 48.1738 113.676 47.8675 113.689 47.801H105.122Z" fill="#666666" style="fill:#666666;fill:color(display-p3 0.4000 0.4000 0.4000);fill-opacity:1;"/>
<path d="M137.833 37.576V46.6826H135.537V39.8527H124.313V46.6826H122.017V37.576H137.833ZM136.675 44.4459V46.6826H123.195V44.4459H136.675ZM131.103 34.1211V52.514H128.687V34.1211H131.103Z" fill="#666666" style="fill:#666666;fill:color(display-p3 0.4000 0.4000 0.4000);fill-opacity:1;"/>
<path d="M141.188 48.1205H144.244V51.196H141.188V48.1205Z" fill="#666666" style="fill:#666666;fill:color(display-p3 0.4000 0.4000 0.4000);fill-opacity:1;"/>
<path d="M146.805 48.1205H149.861V51.196H146.805V48.1205Z" fill="#666666" style="fill:#666666;fill:color(display-p3 0.4000 0.4000 0.4000);fill-opacity:1;"/>
<path d="M152.422 48.1205H155.477V51.196H152.422V48.1205Z" fill="#666666" style="fill:#666666;fill:color(display-p3 0.4000 0.4000 0.4000);fill-opacity:1;"/>
<path d="M172.142 39.2085C172.838 38.5125 173.967 38.5124 174.663 39.2085L180.935 45.48C181.353 45.8977 181.352 46.5748 180.935 46.9927C180.517 47.4103 179.84 47.4104 179.422 46.9927L173.403 40.9731L167.384 46.9927C166.966 47.4105 166.288 47.4105 165.87 46.9927C165.453 46.575 165.453 45.8977 165.87 45.48L172.142 39.2085Z" fill="#666666" style="fill:#666666;fill:color(display-p3 0.4000 0.4000 0.4000);fill-opacity:1;"/>
<path d="M82.851 59.8556C83.442 59.8556 83.9223 60.335 83.9223 60.926V86.9357C83.9219 87.5262 83.4425 88.0048 82.852 88.0051C82.2613 88.0051 81.7821 87.5263 81.7817 86.9357V60.926C81.7817 60.3352 82.2603 59.8559 82.851 59.8556Z" fill="#666666" style="fill:#666666;fill:color(display-p3 0.4000 0.4000 0.4000);fill-opacity:1;"/>
<path d="M135.34 77.916V81.5508H137.357C137.357 82.1365 137.277 82.6228 137.117 83.0088C136.971 83.3949 136.731 83.7283 136.398 84.0078C136.065 84.2873 135.599 84.5672 135 84.8467L135.839 86.2647C136.984 85.7321 137.789 85.0789 138.255 84.3067C138.734 83.5345 138.974 82.6158 138.974 81.5508V77.916H135.34ZM257.715 71.1065C257.715 71.0209 257.72 70.936 257.727 70.8516H253.845C253.487 70.8516 253.144 70.7843 252.826 70.669C253.28 70.9648 253.651 71.3813 253.891 71.8789C254.252 72.6261 254.286 73.4897 253.988 74.2637L253.009 76.7998C252.977 76.8843 252.939 76.9664 252.9 77.0469C252.996 77.1931 253.088 77.3405 253.178 77.4883C253.346 77.734 253.509 77.9748 253.665 78.21C253.705 78.2702 253.742 78.3321 253.778 78.3946C253.895 78.1019 254.06 77.8266 254.268 77.5801C254.838 76.9044 255.677 76.5138 256.561 76.5137H257.715V71.1065ZM102.168 64.5166C102.195 64.8501 102.255 66.1817 102.348 68.5108C102.369 68.892 102.393 69.2647 102.418 69.6289H99.3128V67.6514C100.21 67.4941 101.036 67.3292 101.789 67.1524L101.369 64.7364C98.8933 65.3088 96.3704 65.7011 93.8011 65.9141L93.9808 68.3106C94.8337 68.2456 95.6788 68.1603 96.5169 68.0606V69.6289H93.3616V72.1846H96.5169V74.4756C94.7593 74.844 93.681 75.0536 93.2816 75.1006L93.681 77.8965C94.031 77.8032 94.9766 77.5887 96.5169 77.25V79.0948C96.5169 79.3209 96.4972 79.4873 96.4573 79.5938C96.4174 79.7003 96.3307 79.7808 96.1976 79.834C96.0778 79.8739 95.8713 79.8936 95.5784 79.8936H93.8411L94.3597 82.5293H96.4368C97.4885 82.5293 98.2276 82.3434 98.6536 81.9707C99.093 81.5979 99.3128 80.9385 99.3128 79.9932V76.6426C99.7536 76.5474 100.219 76.4445 100.71 76.3389C101.07 76.259 101.39 76.192 101.669 76.1387C101.949 76.0854 102.182 76.039 102.368 75.9991L102.229 74.6817L102.089 73.2832C101.423 73.4322 100.497 73.6311 99.3128 73.8838V72.1846H102.64C102.801 73.6957 103.003 75.0208 103.247 76.1592C103.308 76.4335 103.37 76.6985 103.434 76.9541C102.265 77.7513 100.912 78.5071 99.3724 79.2149L100.811 81.7705C102.075 81.1343 103.246 80.4419 104.326 79.6963C104.48 80.0523 104.639 80.3714 104.805 80.6524C105.271 81.4379 105.763 82.0107 106.283 82.3701C106.815 82.7295 107.427 82.9091 108.119 82.9092C108.719 82.9092 109.225 82.7224 109.638 82.3496C110.064 81.9769 110.41 81.3581 110.676 80.4932C110.769 80.187 110.883 79.774 111.016 79.2549C111.162 78.7224 111.288 78.2157 111.395 77.7364L109.159 76.6387C109.092 76.9714 109.019 77.3372 108.939 77.7364C108.859 78.1357 108.778 78.5022 108.699 78.835C108.565 79.3542 108.459 79.6938 108.379 79.8535C108.313 80 108.226 80.0733 108.119 80.0733C108 80.0732 107.866 80.0195 107.72 79.9131C107.574 79.8066 107.421 79.6339 107.261 79.3946C106.977 78.9719 106.73 78.5042 106.52 77.9922C108.06 76.6363 109.427 75.0877 110.617 73.3428L108.772 72.1846H111.135V69.6289H108.48L110.296 67.791C109.311 66.7794 108.22 65.7407 107.022 64.6758L105.304 66.4131L105.903 67.0127C107.036 68.1586 107.869 69.0307 108.404 69.6289H105.198C105.173 69.2445 105.148 68.8451 105.124 68.4307C105.111 68.1378 105.098 67.8509 105.084 67.5713C105.071 67.2787 105.058 66.9994 105.044 66.7334C104.991 65.7485 104.964 65.0092 104.964 64.5166H102.168ZM229.801 68.6104C228.017 68.85 226.126 69.0493 224.129 69.209C222.146 69.3688 220.175 69.4761 218.218 69.5293V79.4141C218.218 79.6404 218.171 79.8406 218.077 80.0137C217.998 80.1866 217.885 80.3334 217.739 80.4532L218.876 82.6494L222.312 80.8926L222.033 78.4561L220.774 79.1748V75.9991H224.201C224.37 77.0465 224.572 77.9186 224.808 78.6153C225.088 79.4274 225.44 80.1602 225.867 80.8125C226.292 81.4914 226.712 81.9643 227.124 82.2305C227.537 82.5101 228.004 82.6494 228.523 82.6494C229.015 82.6494 229.448 82.4894 229.821 82.17C230.193 81.8637 230.473 81.4178 230.659 80.8321C230.766 80.5791 230.892 80.1464 231.038 79.5342C231.185 78.9219 231.279 78.4759 231.319 78.1963L229.362 77.3369C229.322 77.6032 229.262 77.9098 229.182 78.2559C229.115 78.5886 229.055 78.8882 229.002 79.1543C228.949 79.3807 228.888 79.5478 228.822 79.6543C228.768 79.747 228.696 79.7938 228.603 79.794C228.496 79.794 228.376 79.7341 228.242 79.6143C228.123 79.4945 227.983 79.2942 227.824 79.0147C227.464 78.4423 227.171 77.7701 226.945 76.9981C226.86 76.6898 226.786 76.3561 226.716 75.9991H230.919V73.6231H226.394C226.341 72.9758 226.298 72.2614 226.266 71.4795C227.69 71.3405 229.075 71.1647 230.419 70.9463L229.801 68.6104ZM221.014 64.5166L221.133 64.8155C221.257 65.1165 221.365 65.3967 221.46 65.6543H214.423V72.6241C214.423 74.1284 214.39 75.3402 214.324 76.2588C214.27 77.164 214.137 77.9961 213.924 78.7549C213.724 79.5138 213.418 80.2796 213.005 81.0518L215.262 82.8096C215.755 81.8377 216.121 80.8717 216.361 79.9131C216.614 78.9547 216.78 77.9026 216.86 76.7578C216.953 75.5996 216.999 74.1286 216.999 72.3448V68.0909H230.979V65.6543H224.764C224.711 65.5156 224.652 65.3627 224.588 65.1953C224.495 64.9823 224.408 64.7759 224.328 64.5762C224.249 64.3765 224.182 64.1897 224.129 64.0166L221.014 64.5166ZM222.331 79.1348C222.451 79.3878 222.605 79.7738 222.791 80.293C223.164 81.3847 223.477 82.2238 223.73 82.8096L225.767 82.0508C225.674 81.8511 225.574 81.6375 225.467 81.4112C225.374 81.1849 225.274 80.9453 225.167 80.6924C224.741 79.6677 224.409 78.9355 224.169 78.4961L222.331 79.1348ZM123.537 75.3008V75.9795H118.485V78.1758H122.004C121.807 78.3199 121.607 78.4612 121.401 78.5957C120.416 79.2347 119.204 79.8004 117.766 80.293L118.864 82.5899C120.261 81.9509 121.46 81.2716 122.458 80.5528C122.828 80.2852 123.187 80.0021 123.537 79.7061V82.7491H126.034V79.8682C126.318 80.091 126.61 80.307 126.912 80.5127C127.911 81.1783 129.069 81.7905 130.387 82.3496L131.366 80.0332C130.074 79.6339 128.943 79.1414 127.971 78.5557C127.773 78.4339 127.58 78.3064 127.391 78.1758H131.026V75.9795H126.034V75.3008H123.537ZM180.314 64.4561L181.159 66.6328H174.782V72.4043C174.782 74.0153 174.728 75.294 174.621 76.2393C174.528 77.171 174.356 77.9764 174.103 78.6553C173.85 79.321 173.457 80.0537 172.924 80.8526L175.181 82.7491C175.887 81.6974 176.413 80.7125 176.759 79.794C177.105 78.862 177.338 77.8031 177.457 76.6182C177.492 76.3067 177.522 75.9672 177.548 75.5996H190.219V66.6328H184.237L183.349 64.0166L180.314 64.4561ZM114.95 64.6162V67.5117H113.532V70.128H114.95V73.1084C114.164 73.4419 113.519 73.7084 113.013 73.9024L113.532 76.6582C114.025 76.4434 114.497 76.2352 114.95 76.0381V79.3545C114.95 79.6473 114.903 79.8404 114.81 79.9336C114.717 80.0268 114.537 80.0733 114.271 80.0733H113.172L113.692 82.5498H115.049C115.648 82.5498 116.115 82.4828 116.448 82.3496C116.78 82.2165 117.014 81.9841 117.147 81.6514C117.293 81.3186 117.366 80.8457 117.367 80.2334V74.9825C117.809 74.7888 118.222 74.6098 118.605 74.4414L118.425 73.084L118.265 71.6455C117.984 71.7762 117.684 71.9108 117.367 72.0537V70.128H118.624V67.5117H117.367V64.6162H114.95ZM237.289 75.5596V80.0537C237.289 80.9322 237.482 81.558 237.868 81.9307C238.255 82.3168 238.914 82.5098 239.846 82.5098H244.02C244.765 82.5098 245.331 82.4499 245.717 82.3301C246.117 82.2103 246.41 81.9905 246.596 81.6709C246.796 81.3647 246.922 80.9054 246.975 80.293C247.081 78.9483 247.135 78.2692 247.135 78.2559L244.699 77.5371C244.699 77.7102 244.692 77.897 244.679 78.0967C244.666 78.283 244.652 78.4763 244.639 78.6758L244.599 79.2149C244.599 79.481 244.572 79.6742 244.519 79.794C244.479 79.9004 244.392 79.98 244.259 80.0332C244.139 80.0731 243.94 80.0938 243.66 80.0938H240.784C240.425 80.0938 240.192 80.0267 240.085 79.8936C239.979 79.7605 239.926 79.4876 239.926 79.0752V75.5596H237.289ZM234.813 75.8994C234.573 76.7116 234.294 77.4908 233.975 78.2364C233.655 78.9685 233.289 79.7139 232.876 80.4727L235.193 81.5108C235.565 80.7919 235.918 80.0331 236.251 79.2344C236.584 78.4357 236.891 77.5839 237.17 76.6787L234.813 75.8994ZM246.237 76.8184C246.716 77.5239 247.202 78.2631 247.695 79.0352C248.187 79.8071 248.626 80.5394 249.012 81.2315L251.169 79.8741C251.01 79.6345 250.843 79.3877 250.67 79.1348C250.51 78.8685 250.337 78.6022 250.151 78.336C249.831 77.8434 249.511 77.3644 249.192 76.8985C248.872 76.4192 248.559 75.9661 248.253 75.5401L246.237 76.8184ZM240.704 75.8594C241.09 76.3786 241.517 77.0113 241.983 77.7569C242.089 77.9432 242.196 78.1229 242.302 78.2959C242.409 78.4557 242.515 78.6023 242.621 78.7354L244.539 77.377C244.22 76.9243 243.86 76.4186 243.46 75.8594C243.061 75.3003 242.735 74.8605 242.482 74.541L240.704 75.8594ZM235.972 63.917C235.817 64.5757 235.629 65.2812 235.409 66.0342H233.236V68.4707H234.645C234.329 69.3893 234.006 70.1948 233.675 70.8867C234.428 71.2847 235.193 71.716 235.974 72.1758C235.197 72.6191 234.158 73.0685 232.856 73.5225L233.975 75.8994C235.719 75.2072 237.05 74.5414 237.969 73.9024C238.097 73.8149 238.219 73.7248 238.338 73.6348C239.134 74.15 239.871 74.6511 240.545 75.1407L241.903 72.6241C241.339 72.2895 240.763 71.9597 240.177 71.6299C240.636 70.8587 241.079 69.8265 241.503 68.5303V66.0342H237.997C238.194 65.3657 238.353 64.7533 238.468 64.1963L235.972 63.917ZM242.143 65.2354V67.5918L242.356 68.1719C242.861 69.4941 243.422 70.5922 244.039 71.4659C244.08 71.5215 244.123 71.5754 244.164 71.6299C243.527 72.0152 242.773 72.3934 241.903 72.7637L243.181 75.041C244.249 74.5071 245.162 73.9715 245.921 73.4375C246.127 73.6009 246.338 73.7569 246.556 73.9024C247.515 74.5414 248.733 75.1473 250.21 75.7198L251.189 73.1836C249.911 72.7843 248.853 72.3382 248.014 71.8457C247.966 71.817 247.919 71.7858 247.871 71.7559C248.222 71.3775 248.529 70.988 248.792 70.5869C249.325 69.7749 249.824 68.7766 250.29 67.5918V65.2354H242.143ZM108.189 72.1846C107.484 73.2546 106.672 74.2285 105.747 75.1045C105.664 74.6297 105.589 74.1226 105.524 73.583C105.477 73.1566 105.433 72.6902 105.389 72.1846H108.189ZM118.825 70.168V75.001H124.336V70.168H118.825ZM125.115 70.168V75.001H130.626V70.168H125.115ZM160.942 72.6045V74.8614H157.462C157.464 74.7046 157.467 74.5448 157.467 74.3819V72.6045H160.942ZM167.433 72.6045V74.8614H163.738V72.6045H167.433ZM223.805 71.6934C223.838 72.3851 223.879 73.0283 223.927 73.6231H220.774V71.9053C221.765 71.846 222.776 71.7743 223.805 71.6934ZM122.339 72.045V73.1836H120.901V72.045H122.339ZM128.589 72.045V73.1836H127.092V72.045H128.589ZM187.324 69.3692V72.8037H177.649C177.652 72.4955 177.658 72.1762 177.658 71.8457V69.3692H187.324ZM196.69 64.376C196.304 65.0416 195.758 65.8076 195.052 66.6729C194.346 67.5383 193.647 68.2638 192.954 68.8496L194.173 71.127C195.038 70.3815 195.904 69.4957 196.769 68.4707C197.634 67.4456 198.321 66.4734 198.826 65.5547L196.69 64.376ZM238.967 68.4707C238.704 69.2476 238.387 69.9068 238.02 70.4492C237.589 70.2211 237.152 69.9944 236.71 69.7686C236.869 69.3944 237.034 68.9616 237.208 68.4707H238.967ZM247.735 67.5918C247.415 68.3506 247.022 69.0227 246.556 69.6084C246.409 69.7945 246.245 69.9768 246.067 70.1573C245.989 70.0632 245.912 69.967 245.837 69.8682C245.383 69.2559 244.958 68.4971 244.563 67.5918H247.735ZM160.942 67.7315V69.9883H157.467V67.7315H160.942ZM167.433 67.7315V69.9883H163.738V67.7315H167.433ZM126.992 66.7334V67.6914H122.498V66.7334H126.992ZM86.9222 86.9375C86.9207 89.1859 85.097 91.0037 82.8538 91.0049H82.8519C80.6059 91.0048 78.7831 89.1849 78.7816 86.9375V60.9258C78.7816 58.6805 80.6012 56.8565 82.8499 56.8555H82.8509C85.0951 56.8555 86.9221 58.6745 86.9222 60.9258V86.9375ZM81.7816 86.9356C81.782 87.5261 82.2612 88.0048 82.8519 88.0049C83.4423 88.0047 83.9218 87.526 83.9222 86.9356V60.9258C83.9221 60.3349 83.4418 59.8555 82.8509 59.8555C82.2603 59.8558 81.7816 60.3351 81.7816 60.9258V86.9356ZM144.243 48.1201H141.189V51.1963H144.243V48.1201ZM107.199 34.2608V35.8184H102.705V37.7354H107.199V39.5127H101.127V41.4502H108.647C106.426 43.0084 103.82 44.3535 100.827 45.4844L101.626 47.6807C102.988 47.0847 104.269 46.4676 105.47 45.8311L105.121 47.8008H113.689C113.675 47.8674 113.616 48.1739 113.509 48.7198C113.443 49.0791 113.402 49.2857 113.389 49.3389C113.309 49.6317 113.203 49.8445 113.07 49.9776C112.95 50.1107 112.784 50.2046 112.571 50.2578C112.358 50.2978 112.031 50.3174 111.592 50.3174H107.458L107.898 52.3145H112.451C113.156 52.3145 113.729 52.2278 114.168 52.0547C114.608 51.895 114.947 51.6349 115.187 51.2754C115.426 50.9161 115.593 50.4304 115.686 49.8184C115.779 49.2592 115.966 47.9608 116.245 45.9239H107.818L108.076 44.6455H117.683V42.7881H110.391C110.609 42.6292 110.823 42.4697 111.033 42.3086C111.398 42.0275 111.754 41.7408 112.101 41.4502H118.742V39.5127H114.205C115.359 38.3416 116.379 37.1043 117.264 35.7989L115.447 34.5801C114.884 35.4221 114.263 36.2311 113.589 37.0088V35.8184H109.495V34.2608H107.199ZM85.5101 45.3047V49.7578C85.5101 50.5434 85.7103 51.1161 86.1097 51.4756C86.5091 51.8483 87.1418 52.0352 88.0071 52.0352H91.9612C92.6401 52.0352 93.1791 51.9743 93.5784 51.8545C93.9778 51.7347 94.271 51.522 94.4573 51.2159C94.657 50.923 94.783 50.5037 94.8362 49.958L94.8968 49.0196C94.9634 48.4471 95.0026 47.9404 95.0159 47.501L92.8597 47.0821C92.8597 47.335 92.8525 47.6344 92.8392 47.9805C92.8392 48.3264 92.8267 48.6261 92.8001 48.8789C92.7735 49.1186 92.7198 49.3126 92.64 49.459C92.5734 49.592 92.4535 49.6985 92.2806 49.7784C92.1208 49.8449 91.8876 49.878 91.5814 49.878H88.7855C88.3997 49.8779 88.1269 49.7982 87.9671 49.6387C87.8074 49.4657 87.7269 49.1991 87.7269 48.8399V45.3047H85.5101ZM82.7943 45.5645C82.5946 46.3899 82.3417 47.2353 82.0355 48.1006C81.7293 48.9527 81.4031 49.7516 81.0569 50.4971L83.0735 51.2364C83.3931 50.5174 83.7068 49.6917 84.013 48.7598C84.3325 47.8279 84.6113 46.9289 84.8509 46.0635L82.7943 45.5645ZM94.5169 46.3028C95.1427 47.3279 95.7557 48.4002 96.3548 49.5186C96.834 50.4238 97.0932 50.9234 97.1331 51.0166L99.0706 49.958C98.578 49.0394 98.2911 48.5203 98.2112 48.4004C97.5322 47.2022 96.9202 46.1629 96.3743 45.2842L94.5169 46.3028ZM170.2 36.917C172.016 35.2766 174.789 35.2759 176.606 36.917L176.784 37.0869L183.056 43.3584C184.646 44.9486 184.644 47.525 183.057 49.1133L183.056 49.1143C181.467 50.7023 178.891 50.7038 177.301 49.1143L173.403 45.2159L169.505 49.1143C167.916 50.7033 165.339 50.7033 163.749 49.1143L163.748 49.1133C162.16 47.524 162.161 44.9483 163.748 43.3594L170.021 37.0869L170.2 36.917ZM174.663 39.208C173.967 38.5123 172.838 38.5124 172.142 39.208L165.87 45.4795C165.453 45.8972 165.453 46.5745 165.87 46.9922C166.262 47.3839 166.883 47.4091 167.303 47.0664L167.384 46.9922L173.403 40.9727L179.422 46.9922C179.814 47.3838 180.434 47.409 180.854 47.0664L180.935 46.9922C181.326 46.6005 181.351 45.9816 181.008 45.5616L180.935 45.4795L174.663 39.208ZM128.687 39.8526V44.4463H124.313V39.8526H128.687ZM135.536 39.8526V44.4463H131.103V39.8526H135.536ZM88.8851 40.5918V42.3692H85.011V40.5918H88.8851ZM94.9769 40.5918V42.3692H91.1019V40.5918H94.9769ZM112.935 37.7354C112.36 38.3489 111.749 38.9414 111.102 39.5127H109.495V37.7354H112.935ZM88.8851 36.8575V38.6143H85.011V36.8575H88.8851ZM94.9769 36.8575V38.6143H91.1019V36.8575H94.9769ZM197.489 82.6895V73.0703C197.77 72.6243 198.028 72.1734 198.263 71.7168L199.125 71.6153V76.4385C199.125 76.758 199.099 77.0181 199.046 77.2178C198.993 77.4041 198.846 77.5839 198.607 77.7569L200.044 79.9131L202.904 77.8526C202.869 77.9209 202.836 77.9901 202.8 78.0567C202.308 78.9618 201.529 80.0068 200.464 81.1914L202.561 82.8692C203.599 81.5778 204.385 80.4197 204.917 79.3946C205.45 78.3561 205.836 77.2105 206.076 75.959C206.328 74.6943 206.495 73.0633 206.575 71.0664C206.614 69.8419 206.635 68.8568 206.635 68.1114C206.64 68.0303 206.644 67.95 206.647 67.8711H208.033C208.046 68.4036 208.04 69.3689 208.013 70.7666C207.986 72.1646 207.952 73.5166 207.912 74.8213C207.872 76.1126 207.826 77.2378 207.773 78.1963C207.773 78.2494 207.766 78.3024 207.753 78.3555V78.5157C207.727 78.8618 207.686 79.1147 207.633 79.2744C207.593 79.4342 207.487 79.5539 207.314 79.6338C207.141 79.7004 206.861 79.7334 206.475 79.7334H205.077L205.596 82.3897H206.954C207.793 82.3897 208.445 82.2968 208.911 82.1104C209.377 81.9373 209.723 81.6244 209.95 81.1719C210.176 80.706 210.296 80.0401 210.309 79.1748C210.322 78.8154 210.382 76.4715 210.489 72.1446C210.595 68.0852 210.649 65.8089 210.649 65.3155H203.06V67.8711H204.236C204.233 68.5187 204.228 69.0512 204.218 69.4688C204.152 71.8119 204.018 73.6027 203.819 74.8409C203.742 75.3533 203.636 75.8366 203.506 76.292L203.06 74.6211L201.602 75.6602V71.3242L203.459 71.1065L203.339 68.5703L201.602 68.7754V64.5957H199.125V69.0694L197.948 69.209L197.997 70.8106L196.589 69.8086C196.097 70.7272 195.517 71.6459 194.852 72.5645C194.2 73.4831 193.547 74.282 192.895 74.961L193.614 77.6973C194.113 77.2292 194.585 76.7493 195.032 76.2608V82.6895H197.489ZM266.651 79.7539C266.651 80.6855 266.528 81.7878 266.013 82.792L266.015 82.793C266.008 82.8065 266 82.8196 265.993 82.833C265.988 82.843 265.983 82.8534 265.978 82.8633L265.977 82.8623C265.387 83.9946 264.423 84.7233 263.357 85.1016C263.342 85.1072 263.326 85.1117 263.311 85.1172C263.294 85.123 263.278 85.1302 263.261 85.1358L263.26 85.1348C262.336 85.4588 261.321 85.5498 260.375 85.5498H257.08C255.619 85.5498 254.37 84.4963 254.123 83.0557L253.818 81.2735C253.574 81.7339 253.217 82.1295 252.768 82.4121L250.611 83.7705C249.952 84.1853 249.159 84.3261 248.401 84.168C247.876 84.6589 247.255 84.9956 246.606 85.1944C246.599 85.1966 246.591 85.199 246.584 85.2012C246.583 85.2017 246.581 85.2027 246.579 85.2032L246.578 85.2022C245.763 85.4501 244.849 85.5098 244.02 85.5098H239.846C238.756 85.5098 237.288 85.3237 236.102 84.3662C235.422 84.5829 234.664 84.5624 233.965 84.2491L232.56 83.6182C232.334 83.9138 232.074 84.193 231.772 84.4473L231.773 84.4483C231.765 84.4548 231.757 84.4604 231.749 84.4668C231.741 84.4738 231.733 84.4814 231.725 84.4883L231.724 84.4873C230.814 85.2482 229.708 85.6494 228.523 85.6494C227.694 85.6494 226.885 85.4734 226.137 85.1133L224.777 85.6201C223.551 86.0766 222.21 85.6814 221.416 84.7188L220.243 85.3203C219.227 85.8403 218.052 85.7245 217.173 85.1192C216.813 85.4174 216.384 85.6327 215.916 85.7373C215.042 85.9328 214.125 85.7264 213.418 85.1758L211.685 83.8252C211.22 84.2846 210.662 84.6474 210.025 84.8946L210.026 84.8955C210.023 84.8968 210.019 84.8972 210.016 84.8985C209.996 84.9062 209.977 84.9154 209.956 84.9229L209.955 84.92C208.993 85.2897 207.93 85.3897 206.954 85.3897H205.596C205.204 85.3896 204.829 85.3115 204.483 85.1729C203.41 86.0698 201.82 86.1186 200.687 85.2119L199.846 84.5391C199.297 85.2382 198.446 85.6894 197.489 85.6895H195.032C193.375 85.6893 192.032 84.3462 192.032 82.6895V80.2432C191.416 79.8606 190.952 79.2639 190.741 78.5537C190.571 78.5835 190.397 78.5996 190.219 78.5996H180.194C180.04 79.3773 179.835 80.1253 179.571 80.8379C179.569 80.8423 179.567 80.8472 179.566 80.8516C179.119 82.038 178.471 83.2297 177.672 84.4209C177.198 85.1284 176.444 85.6005 175.601 85.7198C174.757 85.839 173.902 85.5942 173.25 85.0459L171.904 83.9141C171.433 84.4488 170.843 84.8643 170.164 85.1358C169.256 85.4992 168.267 85.5898 167.393 85.5899H165.076C164.468 85.5898 163.899 85.4061 163.421 85.0899H160.942C159.924 85.0898 159.027 84.5823 158.485 83.8076C158.378 84.0035 158.268 84.2002 158.153 84.3955C157.324 85.7985 155.526 86.2826 154.104 85.4864L151.608 84.0889C150.171 83.2841 149.652 81.4711 150.445 80.0274C150.932 79.1405 151.21 78.5286 151.345 78.1494C151.456 77.8382 151.553 77.413 151.602 76.8448C151.657 76.193 151.691 75.0738 151.691 73.4229V65.0352C151.691 63.3786 153.034 62.0354 154.691 62.0352H170.168C171.531 62.0352 172.68 62.9443 173.045 64.1885C173.535 63.8397 174.134 63.6329 174.782 63.6328H177.43C177.498 63.3946 177.595 63.1628 177.722 62.9444C178.183 62.1547 178.979 61.6183 179.884 61.4873L182.919 61.0479C184.35 60.8408 185.725 61.6844 186.19 63.0537L186.386 63.6328H190.219C191.218 63.6329 192.1 64.1228 192.645 64.8731C192.671 64.8409 192.7 64.8102 192.727 64.7774C193.211 64.183 193.581 63.6791 193.854 63.2608L194.174 62.7412C195.025 61.43 196.754 60.986 198.138 61.7491L198.157 61.7588C198.461 61.655 198.786 61.5958 199.125 61.5957H201.602C202.345 61.5957 203.024 61.8679 203.548 62.3155H210.649C211.464 62.3155 212.202 62.6414 212.742 63.169C213.222 62.8442 213.8 62.6543 214.423 62.6543H218.662C219.125 62.0702 219.792 61.6735 220.538 61.5537L223.655 61.0547L223.93 61.0235C225.133 60.9426 226.261 61.5933 226.801 62.6543H230.979C231.562 62.6543 232.104 62.8236 232.565 63.1114C232.74 63.0713 232.92 63.045 233.106 63.0371C233.525 61.6678 234.863 60.7743 236.305 60.9356L238.802 61.2149C239.64 61.3088 240.4 61.752 240.896 62.4346C240.909 62.4528 240.921 62.4718 240.934 62.4903C241.304 62.3272 241.713 62.2354 242.143 62.2354H250.29C250.914 62.2354 251.494 62.4259 251.974 62.752C252.487 62.3417 253.137 62.0958 253.845 62.0957H270.242C271.898 62.096 273.242 63.439 273.242 65.0957V67.8516C273.241 68.824 272.769 69.7364 271.976 70.2989L266.651 74.0742V79.7539ZM119.882 64.6758V69.5088H129.608V64.6758H119.882ZM260.715 78.4561C260.715 78.8019 260.688 79.0479 260.635 79.1944C260.582 79.3275 260.475 79.4142 260.316 79.4541L260.174 79.4805C260.012 79.5029 259.786 79.5137 259.496 79.5137H256.561L257.08 82.5498H260.375L260.677 82.5459C261.36 82.527 261.905 82.4415 262.313 82.2901C262.792 82.1303 263.132 81.8506 263.331 81.4512C263.518 81.1017 263.623 80.6248 263.646 80.0205L263.651 79.7539V72.5244L270.242 67.8516V65.0957H253.845V67.8516H265.668L260.715 71.1065V78.4561ZM154.691 73.4229C154.691 75.0871 154.658 76.3122 154.591 77.0977C154.525 77.8697 154.385 78.5553 154.172 79.1543C153.959 79.7534 153.593 80.5264 153.074 81.4717L155.57 82.8692C156.089 81.9905 156.488 81.1451 156.768 80.333C157.047 79.5209 157.234 78.655 157.327 77.7364C157.336 77.6519 157.341 77.5654 157.349 77.4776H160.942V82.0899H163.738V77.4776H167.433V79.0948C167.433 79.3743 167.412 79.5745 167.372 79.6944C167.332 79.8006 167.246 79.8732 167.113 79.9131C166.979 79.953 166.747 79.9736 166.414 79.9737H164.597L165.076 82.5899H167.393C168.01 82.5899 168.51 82.5285 168.893 82.4063L169.05 82.3496C169.449 82.1899 169.735 81.9172 169.909 81.5313C170.082 81.1585 170.168 80.6322 170.168 79.9532V65.0352H154.691V73.4229ZM132.608 67.919C133.231 68.4687 133.626 69.2713 133.626 70.168V74.4864C133.765 74.7269 133.869 74.9881 133.937 75.2647C134.356 75.0427 134.833 74.916 135.34 74.916H138.974C140.631 74.916 141.974 76.2594 141.974 77.916V81.5508C141.974 83.0652 141.63 84.5407 140.823 85.8565L140.824 85.8575C139.949 87.3072 138.581 88.2973 137.104 88.9844C135.706 89.6345 134.042 89.119 133.257 87.792L132.418 86.3741C132.147 85.9158 132.006 85.3986 132 84.877C131.847 84.9749 131.685 85.0616 131.514 85.1309C130.776 85.43 129.948 85.4224 129.215 85.1114C128.905 84.9799 128.602 84.8438 128.304 84.7051C127.754 85.3432 126.942 85.749 126.034 85.7491H123.537C122.647 85.7491 121.849 85.3588 121.299 84.7422C120.914 84.9388 120.519 85.1321 120.112 85.3184C119.203 85.7336 118.195 85.655 117.386 85.1973C116.59 85.4803 115.756 85.5498 115.049 85.5498H113.692C112.865 85.5498 112.106 85.2106 111.557 84.6543C110.565 85.5104 109.361 85.9092 108.119 85.9092C106.878 85.9091 105.671 85.5767 104.604 84.8565C104.594 84.8499 104.584 84.8436 104.575 84.8369C104.138 84.535 103.75 84.1788 103.399 83.792C102.993 84.0169 102.58 84.2389 102.159 84.4512C101.475 84.7949 100.721 84.8498 100.034 84.6651C98.8578 85.3953 97.4823 85.5293 96.4368 85.5293H94.3597C92.9265 85.5291 91.6933 84.5156 91.4163 83.1094L90.8978 80.4737C90.8083 80.0195 90.8262 79.5567 90.9427 79.1201C90.83 78.8681 90.7511 78.5991 90.7112 78.3203L90.3118 75.5244C90.2148 74.8443 90.3557 74.1561 90.7025 73.5713C90.4857 73.1565 90.3616 72.6851 90.3616 72.1846V69.6289C90.3616 68.9691 90.5768 68.3606 90.9378 67.8653L90.8089 66.1387C90.6857 64.4957 91.911 63.061 93.553 62.9248C95.9805 62.7236 98.3602 62.352 100.694 61.8125C100.789 61.7905 100.885 61.7733 100.981 61.7608C101.352 61.6008 101.756 61.5167 102.168 61.5166H104.964C105.41 61.5166 105.832 61.6158 106.212 61.7901C107.165 61.5238 108.226 61.7321 109.015 62.4336C110.012 63.3197 110.943 64.1952 111.81 65.0576C111.855 65.0256 111.902 64.9954 111.95 64.9659V64.6162C111.95 62.9595 113.293 61.6164 114.95 61.6162H117.367C117.841 61.6163 118.288 61.7288 118.687 61.9248C119.053 61.7654 119.457 61.6759 119.882 61.6758H129.608C131.265 61.6758 132.608 63.019 132.608 64.6758V67.919ZM146.805 51.1963H149.861V48.1201H146.805V51.1963ZM152.422 51.1963H155.477V48.1201H152.422V51.1963ZM128.687 34.1211V37.5762H122.017V46.6826H128.687V52.5137H131.103V46.6826H137.833V37.5762H131.103V34.1211H128.687ZM82.7347 44.4063H90.013L88.6263 45.3643C88.7727 45.5773 88.9389 45.824 89.1253 46.1035C89.325 46.3831 89.5315 46.6825 89.7444 47.002C90.4234 48.0538 90.7764 48.6069 90.803 48.6602L92.5804 47.4014C92.4073 47.1485 92.2071 46.8625 91.9808 46.543C91.7678 46.2235 91.5345 45.8973 91.2816 45.5645L90.4476 44.4063H97.2532V34.8203H82.7347V44.4063ZM134.103 34.5762H137.833C139.49 34.5762 140.833 35.9193 140.833 37.5762V45.1416C140.95 45.1279 141.069 45.1201 141.189 45.1201H144.243C144.702 45.1201 145.135 45.2264 145.524 45.4102C145.913 45.226 146.346 45.1202 146.805 45.1201H149.861C150.319 45.1202 150.752 45.2263 151.141 45.4102C151.53 45.2261 151.963 45.1201 152.422 45.1201H155.477C157.134 45.1201 158.477 46.4635 158.477 48.1201V51.1963C158.477 52.853 157.134 54.1963 155.477 54.1963H152.422C151.963 54.1963 151.53 54.0895 151.141 53.9053C150.752 54.0893 150.319 54.1963 149.861 54.1963H146.805C146.346 54.1963 145.913 54.0896 145.524 53.9053C145.135 54.0892 144.702 54.1963 144.243 54.1963H141.189C139.532 54.1963 138.189 52.853 138.189 51.1963V49.6602C138.072 49.674 137.954 49.6826 137.833 49.6826H134.103V52.5137C134.103 54.1706 132.76 55.5137 131.103 55.5137H128.687C127.03 55.5137 125.687 54.1706 125.687 52.5137V49.6826H122.017C120.572 49.6826 119.367 48.6615 119.081 47.3018C118.88 48.7498 118.736 49.7485 118.651 50.2686L118.652 50.2696C118.519 51.141 118.248 52.0923 117.683 52.9395C117.075 53.8518 116.225 54.4798 115.267 54.8438L115.268 54.8457C115.256 54.8502 115.244 54.853 115.233 54.8575C115.219 54.8624 115.207 54.8692 115.194 54.8741L115.193 54.8721C114.296 55.2107 113.34 55.3145 112.451 55.3145H107.898C106.489 55.3145 105.27 54.3346 104.967 52.959L104.528 50.9619C104.511 50.8854 104.498 50.8084 104.488 50.7315C104.068 50.6407 103.673 50.4622 103.329 50.2061C103.164 50.2803 102.997 50.3562 102.829 50.4297C102.557 50.5487 102.272 50.6237 101.983 50.6582C101.791 51.453 101.282 52.1683 100.509 52.5909L98.5716 53.6485C97.8299 54.0537 96.9515 54.1278 96.1527 53.8516C96.1384 53.8467 96.1248 53.8401 96.1107 53.835C95.6052 54.2608 95.0282 54.5523 94.4407 54.7285C93.6422 54.9681 92.7734 55.0352 91.9612 55.0352H88.0071C86.9082 55.0352 85.5248 54.8294 84.3763 53.9346C83.669 54.2757 82.8327 54.3423 82.0423 54.0528L80.0247 53.3135C79.237 53.0248 78.6064 52.4197 78.2855 51.6446C77.9645 50.8692 77.9829 49.9945 78.3362 49.2334C78.641 48.577 78.9334 47.8619 79.2122 47.086C79.4546 46.3998 79.6545 45.7362 79.8177 45.0957C79.7655 44.8741 79.7347 44.6438 79.7347 44.4063V34.8203C79.7347 33.1635 81.0778 31.8203 82.7347 31.8203H97.2532C98.6946 31.8204 99.8972 32.8371 100.186 34.1924C100.72 33.3663 101.648 32.8184 102.705 32.8184H104.569C105.079 31.8904 106.065 31.2608 107.199 31.2608H109.495C110.629 31.2609 111.615 31.8904 112.125 32.8184H113.023C113.466 32.2086 114.121 31.7847 114.864 31.6377C115.645 31.4831 116.455 31.6455 117.117 32.0889L118.934 33.3067C119.587 33.7447 120.04 34.422 120.2 35.1914C120.704 34.8064 121.333 34.5762 122.017 34.5762H125.687V34.1211C125.687 32.4643 127.03 31.1211 128.687 31.1211H131.103C132.76 31.1211 134.103 32.4643 134.103 34.1211V34.5762Z" fill="white" style="fill:white;fill-opacity:1;"/>
</g>
<defs>
<filter id="filter0_d_1_176" x="0" y="0" width="289.021" height="111.005" filterUnits="userSpaceOnUse" color-interpolation-filters="sRGB">
<feFlood flood-opacity="0" result="BackgroundImageFix"/>
<feColorMatrix in="SourceAlpha" type="matrix" values="0 0 0 0 0 0 0 0 0 0 0 0 0 0 0 0 0 0 127 0" result="hardAlpha"/>
<feOffset dy="4"/>
<feGaussianBlur stdDeviation="6"/>
<feComposite in2="hardAlpha" operator="out"/>
<feColorMatrix type="matrix" values="0 0 0 0 0 0 0 0 0 0 0 0 0 0 0 0 0 0 0.1 0"/>
<feBlend mode="normal" in2="BackgroundImageFix" result="effect1_dropShadow_1_176"/>
<feBlend mode="normal" in="SourceGraphic" in2="effect1_dropShadow_1_176" result="shape"/>
</filter>
</defs>
</svg>
